<svg width="70" height="70" viewBox="0 0 70 70" fill="none" xmlns="http://www.w3.org/2000/svg">
<circle cx="35" cy="35" r="35" fill="#25B4F8"/>
<g clip-path="url(#clip0_111_401)">
<path d="M30.7963 25.1068C32.1133 26.4237 33.002 28.0857 33.368 29.9127C33.5225 30.6875 34.2095 31.25 35 31.25C35.7905 31.25 36.4775 30.6875 36.6327 29.9113L37.088 27.6327C37.1188 27.479 37.3812 27.4798 37.412 27.632L37.8673 29.912C38.0225 30.6875 38.7095 31.25 39.5 31.25C40.2905 31.25 40.9775 30.6875 41.1327 29.912C41.498 28.085 42.3875 26.4237 43.7045 25.106L44.0375 24.773C44.981 23.8303 45.5 22.5763 45.5 21.242C45.5 18.4895 43.2605 16.25 40.5072 16.25H39.9395L39.2803 16.9093C38.7455 17.4433 38.006 17.75 37.25 17.75C36.494 17.75 35.7545 17.4433 35.2197 16.9093L34.5605 16.25H33.9927C31.2395 16.25 29 18.4895 29 21.2427C29 22.577 29.519 23.831 30.4625 24.773L30.7963 25.1068ZM33.9395 17.75L34.1592 17.969C34.973 18.7835 36.0995 19.25 37.25 19.25C38.4005 19.25 39.527 18.7835 40.3407 17.9698L40.5605 17.75C42.4618 17.7793 44 19.3347 44 21.2427C44 22.1765 43.637 23.0533 42.977 23.7125L42.644 24.0455C41.117 25.5732 40.0857 27.4993 39.662 29.6165C39.6312 29.7703 39.3688 29.7695 39.338 29.6173L38.8827 27.3373C38.7275 26.5625 38.0405 26 37.25 26C36.4595 26 35.7725 26.5625 35.6173 27.3387L35.162 29.6173C35.1312 29.771 34.8688 29.771 34.838 29.6173C34.415 27.5 33.3838 25.5733 31.856 24.0463L31.523 23.7117C30.863 23.0525 30.5 22.1757 30.5 21.2427C30.5 19.3347 32.0383 17.7793 33.9395 17.75Z" fill="white"/>
<path d="M56.7702 39.914C56.3097 39.6432 55.784 39.5 55.2507 39.5C54.1932 39.5 53.2025 40.0662 52.664 40.979L51.3088 43.283C50.9442 41.8355 50.075 40.589 48.824 39.7557C48.6485 39.6388 48.4625 39.5435 48.2772 39.4468C49.7593 38.5183 50.75 36.875 50.75 35C50.75 32.339 48.758 30.1392 46.1878 29.8002C47.6818 27.8533 48.5 25.499 48.5 23C48.5 16.7968 43.4533 11.75 37.25 11.75C31.0467 11.75 26 16.7968 26 23C26 23.5798 26.0495 24.1588 26.1395 24.7333C25.6175 24.5848 25.0693 24.5 24.5 24.5C21.1918 24.5 18.5 27.1918 18.5 30.5C18.5 32.6248 19.613 34.49 21.2833 35.5565C17.4853 36.89 14.75 40.502 14.75 44.75V50.75C14.75 51.299 14.909 51.8068 15.167 52.25H14.75C13.0955 52.25 11.75 53.5955 11.75 55.25C11.75 56.9045 13.0955 58.25 14.75 58.25H43.8898C47.33 58.25 50.5497 56.408 52.2943 53.4432L57.8375 44.0188C58.6738 42.5923 58.1953 40.7502 56.7702 39.914ZM49.9108 43.868C50.0218 44.4207 50.0292 44.9795 49.9287 45.5585L49.9167 45.6493L47.1215 50.4012C46.4517 51.542 45.212 52.25 43.8898 52.25H37.25C36.6297 52.25 36.125 51.7453 36.125 51.125C36.125 50.5047 36.6297 50 37.25 50H42.9387C43.8552 50 44.717 49.5117 45.1895 48.7257L46.8927 45.8862L45.6065 45.1145L43.9032 47.954C43.7015 48.2907 43.331 48.5 42.9387 48.5H37.5905L41.7545 42.2533C42.5877 40.9993 43.9873 40.25 45.4977 40.25C46.388 40.25 47.2505 40.511 47.9923 41.0052C48.9928 41.6712 49.6745 42.6875 49.9108 43.868ZM30.3395 31.8582C32.3083 33.4025 34.709 34.25 37.25 34.25C38.3255 34.25 39.377 34.0798 40.4 33.7775C40.3055 34.1705 40.25 34.5785 40.25 35C40.25 36.8682 41.234 38.5077 42.7085 39.4385C41.8333 39.8982 41.0712 40.5718 40.5057 41.4222L36.2878 47.75H35.9773L34.25 46.5988V44.75C34.25 40.502 31.5147 36.89 27.7167 35.5565C29.0195 34.7248 29.9788 33.407 30.3395 31.8582ZM33.2728 47.75H20.7492L23.063 46.0153C24.1512 45.1992 25.499 44.75 26.8588 44.75C28.1112 44.75 29.324 45.1175 30.3665 45.812L33.2728 47.75ZM49.25 35C49.25 37.0677 47.5677 38.75 45.5 38.75C43.4323 38.75 41.75 37.0677 41.75 35C41.75 32.9323 43.4323 31.25 45.5 31.25C47.5677 31.25 49.25 32.9323 49.25 35ZM27.5 23C27.5 17.624 31.874 13.25 37.25 13.25C42.626 13.25 47 17.624 47 23C47 25.6423 45.9523 28.103 44.0578 29.9562C42.95 30.2735 41.9938 30.9463 41.3158 31.8425C40.0228 32.4403 38.657 32.75 37.25 32.75C34.697 32.75 32.3053 31.7668 30.4745 29.9907C30.317 28.13 29.3105 26.5077 27.8405 25.5185C27.6185 24.692 27.5 23.8468 27.5 23ZM20 30.5C20 28.0182 22.0182 26 24.5 26C26.9818 26 29 28.0182 29 30.5C29 32.9818 26.9818 35 24.5 35C22.0182 35 20 32.9818 20 30.5ZM24.5 36.5C29.0487 36.5 32.75 40.2013 32.75 44.75V45.599L31.1982 44.564C29.909 43.7045 28.4083 43.25 26.8588 43.25C25.1772 43.25 23.5093 43.8057 22.1637 44.8145L18.2502 47.75H17.75C17.201 47.75 16.6933 47.909 16.25 48.167V44.75C16.25 40.2013 19.9513 36.5 24.5 36.5ZM16.25 50.75C16.25 49.9227 16.9227 49.25 17.75 49.25H35.4185C34.9302 49.727 34.625 50.39 34.625 51.125C34.625 51.5293 34.7248 51.908 34.8883 52.25H17.7463C16.9212 52.2477 16.25 51.5757 16.25 50.75ZM56.5437 43.259L51.0005 52.6828C49.5245 55.1915 46.7998 56.75 43.8898 56.75H14.75C13.9227 56.75 13.25 56.0773 13.25 55.25C13.25 54.4227 13.9227 53.75 14.75 53.75H17.7463H17.75H34.25H37.25H43.8898H43.9647V53.7448C45.7887 53.7185 47.489 52.736 48.416 51.1618L53.9577 41.7402C54.3613 41.0532 55.3205 40.8027 56.012 41.2078C56.723 41.6255 56.9615 42.5465 56.5437 43.259Z" fill="white"/>
</g>
<defs>
<clipPath id="clip0_111_401">
<rect width="48" height="48" fill="white" transform="translate(11 11)"/>
</clipPath>
</defs>
</svg>
