<svg width="70" height="70" viewBox="0 0 70 70" fill="none" xmlns="http://www.w3.org/2000/svg">
<circle cx="35" cy="35" r="35" fill="#25B4F8"/>
<g clip-path="url(#clip0_111_402)">
<path d="M34.9995 10.9756C35.1331 10.9756 35.2632 11.0292 35.4009 11.1289C35.5382 11.2283 35.6875 11.3763 35.8618 11.5693C36.0364 11.7626 36.2383 12.0046 36.48 12.293C36.7218 12.5815 37.0045 12.9176 37.3413 13.3018C41.4683 18.0099 45.3269 19.2749 48.1509 19.6104C49.5653 19.7783 50.7187 19.7136 51.5278 19.7295C51.9294 19.7374 52.2522 19.7649 52.4751 19.8564C52.5879 19.9028 52.678 19.9673 52.7397 20.0557C52.8016 20.1443 52.8315 20.2531 52.8315 20.3838L52.8081 40.4531V40.4609L52.8052 40.4678C50.2728 48.863 44.9587 54.8365 36.2251 58.5742C36.1678 58.5988 36.0772 58.6399 35.9692 58.6885C35.8616 58.7369 35.7365 58.7924 35.6128 58.8447C35.4895 58.8969 35.3663 58.9469 35.2603 58.9834C35.1566 59.0191 35.0619 59.0449 35.0005 59.0449C34.9389 59.0449 34.8445 59.0181 34.7407 58.9824C34.6346 58.9459 34.5107 58.897 34.3872 58.8447C34.2635 58.7923 34.1385 58.737 34.0308 58.6885C33.9227 58.6398 33.8324 58.5979 33.7749 58.5732C25.0362 54.8324 19.731 48.8661 17.1938 40.4678L17.1919 40.46V40.4531L17.1685 20.3838C17.1685 20.2531 17.1984 20.1442 17.2603 20.0557C17.322 19.9673 17.4121 19.9028 17.5249 19.8564C17.7478 19.7649 18.0706 19.7374 18.4722 19.7295C19.2813 19.7136 20.4347 19.7783 21.8491 19.6104C24.673 19.2749 28.5315 18.01 32.6587 13.3018C32.9955 12.9175 33.2782 12.5815 33.52 12.293C33.7618 12.0046 33.9636 11.7627 34.1382 11.5693C34.3125 11.3763 34.4618 11.2283 34.5991 11.1289C34.7366 11.0294 34.8661 10.9757 34.9995 10.9756ZM33.5796 14.1094C29.5945 18.6546 25.3554 20.8285 20.2397 20.9414L18.3931 20.9814V40.1992C20.8409 48.2873 25.8052 53.8292 34.2563 57.4473L35.0005 57.7656L35.7427 57.4482C43.9814 53.9221 49.1421 48.3679 51.5259 40.4668L51.6069 40.1982V20.9814L49.7603 20.9414C44.6452 20.8285 40.4055 18.6544 36.4204 14.1094L34.9995 12.4883L33.5796 14.1094Z" fill="white" stroke="white" stroke-width="0.1"/>
<path d="M34.5391 14.9512C34.7725 14.6846 35.2266 14.6846 35.46 14.9512C39.7018 19.7898 44.2363 22.096 49.7314 22.2178C50.064 22.2251 50.3311 22.4974 50.3311 22.8301L50.3066 40.083V40.0908L50.3047 40.0977C48.0362 47.6158 43.1066 52.9082 35.2412 56.2744C35.1652 56.3072 35.0829 56.3232 35.001 56.3232C34.919 56.3232 34.8363 56.3072 34.7598 56.2744C26.8943 52.9077 21.9645 47.6158 19.6963 40.0977L19.6943 40.0908V40.083L19.6699 22.8291C19.6701 22.4963 19.9358 22.2251 20.2686 22.2178C25.7637 22.0961 30.2973 19.7894 34.5391 14.9512ZM35 16.2705C30.8526 20.7994 26.2262 23.1459 20.8945 23.4189V39.8281C23.0396 46.8554 27.6537 51.8334 35 55.042C42.346 51.8338 46.9602 46.8568 49.1055 39.8311V23.4189C43.7735 23.1455 39.1474 20.7993 35 16.2705Z" fill="white" stroke="white" stroke-width="0.1"/>
<path d="M30.8735 24.9443C31.7572 24.9443 32.4146 25.1026 32.9253 25.3213C33.4355 25.5398 33.798 25.8175 34.0923 26.0537C34.2401 26.1723 34.369 26.2786 34.4917 26.3633C34.6141 26.4477 34.7269 26.5086 34.8413 26.5361C35.0644 26.5898 35.311 26.523 35.6665 26.2148C38.9281 23.3876 44.5833 25.5182 44.5835 30.3281C44.5835 32.0701 43.7633 33.6697 42.3706 34.6855C42.9154 38.2277 42.8856 42.6272 38.6187 45.9912C38.1407 46.3682 37.4607 45.8793 37.6626 45.3066C38.3546 43.3483 37.9254 41.7755 37.2026 40.6123C36.4921 39.4688 35.4971 38.7204 35.0015 38.3945C34.511 38.7193 33.5267 39.463 32.8169 40.5947C32.095 41.7459 31.6568 43.2991 32.311 45.2266H32.3101C32.4239 45.4895 32.382 45.7151 32.2603 45.875C32.1399 46.0329 31.9449 46.123 31.7612 46.123H31.7114V46.1182C31.5947 46.1085 31.4797 46.0676 31.3823 45.9912C27.1155 42.6268 27.0846 38.2268 27.6294 34.6846C23.4477 31.6373 25.5451 24.9446 30.8735 24.9443ZM39.1274 26.1689C37.6847 26.1689 36.8673 26.8889 36.1167 27.3809C35.7429 27.6258 35.3808 27.8171 34.9673 27.8184C34.5525 27.8195 34.0959 27.6302 33.5317 27.1406C32.3125 26.0823 30.5895 25.9209 29.1704 26.5049C27.7532 27.0882 26.6421 28.4134 26.6421 30.3281C26.6421 31.7825 27.3807 33.109 28.6187 33.877C28.8296 34.008 28.9409 34.2531 28.8999 34.498C28.208 38.6292 28.7737 41.5002 30.7778 43.7549C30.6633 41.7597 31.5573 40.1028 32.5542 38.9395C33.0646 38.3438 33.6029 37.8766 34.0474 37.5576C34.2696 37.3981 34.4697 37.2755 34.6313 37.1924C34.7121 37.1508 34.7842 37.1184 34.8452 37.0967C34.8751 37.0861 34.9032 37.0771 34.9292 37.0713L35.0005 37.0625L35.0718 37.0713C35.0978 37.0772 35.1259 37.086 35.1558 37.0967C35.2167 37.1184 35.289 37.1499 35.3696 37.1914C35.5312 37.2745 35.7304 37.3982 35.9526 37.5576C36.3971 37.8766 36.9352 38.3437 37.4458 38.9395C38.4428 40.1027 39.3366 41.7591 39.2222 43.7549C41.2261 41.5005 41.793 38.6302 41.1011 34.499C41.0597 34.2539 41.1711 34.008 41.3823 33.877C44.8822 31.7063 43.5061 26.1692 39.1274 26.1689Z" fill="white" stroke="white" stroke-width="0.1"/>
<path d="M32.8896 28.5273C33.0122 28.5092 33.131 28.5456 33.2471 28.6084C33.3626 28.6709 33.4811 28.7624 33.6045 28.8604C33.7292 28.9594 33.8602 29.0666 34.0039 29.1641C34.2903 29.3584 34.6229 29.5119 35.0391 29.4844C35.4561 29.4567 35.9664 29.2464 36.6055 28.6924C36.7558 28.5621 36.9213 28.519 37.0752 28.54C37.2276 28.5609 37.365 28.6438 37.4639 28.7578C37.5628 28.8719 37.6259 29.0199 37.625 29.1738C37.624 29.3291 37.5576 29.4869 37.4072 29.6172C36.5872 30.3279 35.7952 30.7312 35.001 30.7314V30.7324C34.7904 30.7324 34.4839 30.6653 34.1582 30.5537C33.8315 30.4417 33.4799 30.2834 33.1768 30.0977C32.8748 29.9126 32.6157 29.697 32.4795 29.4688C32.411 29.354 32.3718 29.2338 32.377 29.1113C32.3823 28.9881 32.4323 28.8671 32.5312 28.7529C32.6489 28.6174 32.7667 28.5457 32.8896 28.5273Z" fill="white" stroke="white" stroke-width="0.1"/>
</g>
<defs>
<clipPath id="clip0_111_402">
<rect width="48" height="48" fill="white" transform="translate(11 11)"/>
</clipPath>
</defs>
</svg>
