<svg width="70" height="70" viewBox="0 0 70 70" fill="none" xmlns="http://www.w3.org/2000/svg">
<circle cx="35" cy="35" r="35" fill="#25B4F8"/>
<g clip-path="url(#clip0_111_400)">
<path d="M18.9876 14.8651C18.9308 14.5294 18.668 14.2665 18.3323 14.2097C17.0288 13.9919 16.0074 12.9703 15.7901 11.6667C15.7164 11.2311 15.3035 10.9376 14.8679 11.0113C14.5322 11.0681 14.2694 11.331 14.2126 11.6667C13.9952 12.9703 12.9739 13.992 11.6703 14.2097C11.2348 14.2834 10.9413 14.6963 11.015 15.1318C11.0718 15.4675 11.3347 15.7304 11.6703 15.7872C12.9739 16.005 13.9952 17.0266 14.2126 18.3302C14.2863 18.7658 14.6991 19.0593 15.1347 18.9856C15.4704 18.9288 15.7333 18.6659 15.7901 18.3302C16.0074 17.0266 17.0288 16.005 18.3323 15.7872C18.7678 15.7136 19.0613 15.3007 18.9876 14.8651ZM15.0013 16.1408C14.6894 15.6969 14.3029 15.3103 13.859 14.9984C14.3029 14.6866 14.6894 14.3 15.0013 13.8561C15.3132 14.3 15.6998 14.6866 16.1436 14.9984C15.6997 15.3104 15.3132 15.6969 15.0013 16.1408Z" fill="white"/>
<path d="M42.7802 15.7978C41.2329 15.7977 39.7018 16.112 38.2797 16.7218C36.1843 17.6144 33.8155 17.6144 31.7201 16.7218C25.9238 14.2367 19.2103 16.921 16.7252 22.7174C16.1155 24.1395 15.8012 25.6705 15.8013 27.2178C15.7997 31.9288 17.1237 36.5452 19.6218 40.5393L19.8506 40.9065L23.3047 56.1054C23.759 58.107 25.75 59.3615 27.7516 58.9072C29.2241 58.573 30.348 57.3813 30.5954 55.8918L32.9953 41.4976C33.1809 40.39 34.2294 39.6428 35.337 39.8284C36.1924 39.9719 36.8628 40.6422 37.0062 41.4976L39.406 55.891C39.7438 57.9161 41.6591 59.2839 43.6842 58.9462C45.1724 58.698 46.3629 57.575 46.6975 56.1038L50.1508 40.9049L50.3796 40.5377C52.8769 36.5439 54.2003 31.9281 54.1985 27.2178C54.1989 20.9112 49.0867 15.7983 42.7802 15.7978ZM49.0213 39.6922L48.7205 40.1721C48.6733 40.2482 48.6388 40.3314 48.6181 40.4185L45.136 55.747C44.8767 56.8873 43.7421 57.6016 42.6018 57.3423C41.7638 57.1518 41.1242 56.4738 40.9827 55.6262L38.5829 41.2328C38.2525 39.2541 36.3805 37.9177 34.4017 38.2482C32.8715 38.5036 31.6724 39.7027 31.417 41.2328L29.0171 55.627C28.826 56.7802 27.7361 57.5603 26.5829 57.3691C25.734 57.2284 25.0547 56.5879 24.8646 55.7486L21.3817 40.4193C21.361 40.3322 21.3265 40.249 21.2793 40.1729L20.9785 39.693C18.6396 35.9524 17.4 31.6294 17.4012 27.2178C17.4074 21.7973 21.7999 17.4047 27.2205 17.3985C28.5506 17.3971 29.8669 17.6671 31.089 18.1921C33.5873 19.258 36.4125 19.258 38.9108 18.1921C43.896 16.056 49.6689 18.3656 51.8049 23.3507C52.3286 24.5727 52.5986 25.8883 52.5987 27.2178C52.5997 31.6292 51.3601 35.9518 49.0213 39.6922Z" fill="white"/>
<path d="M24.6007 21.3972L24.4407 20.6133C22.8408 20.9341 19.801 22.6811 19.801 26.9968H21.4009C21.4009 22.9403 24.6247 22.21 24.7607 22.1804L24.6007 21.3972Z" fill="white"/>
<path d="M27.8006 20.5977H26.2007V22.1975H27.8006V20.5977Z" fill="white"/>
<path d="M58.9849 48.4627C58.9281 48.127 58.6653 47.8642 58.3296 47.8074C57.0261 47.5896 56.0048 46.5679 55.7874 45.2643C55.7137 44.8288 55.3008 44.5353 54.8652 44.609C54.5296 44.6658 54.2667 44.9287 54.2099 45.2643C53.9925 46.5679 52.9712 47.5896 51.6677 47.8074C51.2321 47.8811 50.9386 48.2939 51.0123 48.7295C51.0691 49.0652 51.332 49.3281 51.6677 49.3848C52.9712 49.6026 53.9925 50.6243 54.2099 51.9279C54.2836 52.3634 54.6964 52.6569 55.132 52.5832C55.4677 52.5264 55.7306 52.2635 55.7874 51.9279C56.0048 50.6243 57.0261 49.6026 58.3296 49.3848C58.7652 49.3113 59.0586 48.8984 58.9849 48.4627ZM54.9986 49.7384C54.6867 49.2946 54.3002 48.908 53.8563 48.5961C54.3002 48.2842 54.6867 47.8977 54.9986 47.4538C55.3105 47.8977 55.6971 48.2842 56.1409 48.5961C55.697 48.9081 55.3105 49.2946 54.9986 49.7384Z" fill="white"/>
</g>
<defs>
<clipPath id="clip0_111_400">
<rect width="48" height="48" fill="white" transform="translate(11 11)"/>
</clipPath>
</defs>
</svg>
